{
 "cells": [
  {
   "cell_type": "markdown",
   "id": "bc71c82b",
   "metadata": {},
   "source": [
    "Meditations by Emperor of Rome Marcus Aurelius\n",
    "\n",
    "Source https://www.gutenberg.org/ebooks/2680\n",
    "\n",
    "Ref https://en.wikipedia.org/wiki/Meditations"
   ]
  },
  {
   "cell_type": "code",
   "execution_count": null,
   "id": "8e0fc48f",
   "metadata": {},
   "outputs": [],
   "source": [
    "# Concept art\n",
    "\n",
    "Summary: \n",
    "the importance of analyzing one's judgment of self and others and developing a cosmic perspective\n",
    "\n",
    "Genre: Personal development\n",
    "\n",
    "Background: \n",
    "series of personal writings by Marcus Aurelius, Roman Emperor from AD 161 to 180\n",
    "about 'things to one's self'\n",
    "as a source for his own guidance and self-improvement\n",
    "written at Sirmium, where he spent much time planning military campaigns\n",
    "\n",
    "Main charactor:\n",
    "Marcus Aurelius Antonius  was Roman emperor from 161 to 180 AD and a Stoic philosopher. \n",
    "He was the last of the rulers known as the Five Good Emperors\n",
    "\n",
    "Prompt:\n",
    "Note to self for own guidance and self-improvement,\n",
    "writings by good Roman Emperor, about 'things to one's self' \n",
    "--ar 3:2 --no text\n",
    "\n",
    "self guidance and self-improvement, \n",
    "writings by good Roman Emperor, Marcus Aurelius,\n",
    "about 'things to one's self'  --ar 3:2 --no text\n",
    "\n",
    "self guidance and self-improvement, \n",
    "about 'things to one's self'  --ar 3:2 --no text\n",
    "\n",
    "abstract object represent meditation, self guidance and self-improvement,\n",
    "calm atmosphere\n",
    "--ar 3:2 --no text\n",
    "\n",
    "abstract object represent meditation, self guidance and self-improvement,\n",
    "calm atmosphere, roman era\n",
    "--ar 3:2 --no text"
   ]
  },
  {
   "cell_type": "code",
   "execution_count": null,
   "id": "0229b767",
   "metadata": {},
   "outputs": [],
   "source": [
    "# Youtube description\n",
    "\n",
    "Prompt: Write title, description, and keywords of youtube video of full audiobook of the classic book \"Meditations by Emperor of Rome Marcus Aurelius\"\n",
    "\n",
    "Title: \"Meditations by Marcus Aurelius: Full Audiobook Edition\"\n",
    "\n",
    "Description: Discover the ancient wisdom and philosophy of Marcus Aurelius, Emperor of Rome, in this full audiobook edition of his classic work, \"Meditations.\" \n",
    "Explore the thoughts and reflections of one of history's most influential leaders as he reflects on life, ethics, and the human condition. \n",
    "Let the powerful words and insights of Marcus Aurelius inspire and guide you on your own journey of self-discovery and growth.\n",
    "\n",
    "0:00:00 Chapter 1\n",
    "1:00:12 Chaptor 2\n",
    "1:14:20 Chaptor 3\n",
    "1:36:09 Chaptor 4\n",
    "2:12:14 Chaptor 5\n",
    "2:48:05 Chaptor 6\n",
    "3:24:38 Chaptor 7\n",
    "4:03:50 Chaptor 8\n",
    "4:43:08 Chaptor 9\n",
    "5:18:03 Chaptor 10\n",
    "5:58:17 Chaptor 11\n",
    "6:27:35 Chaptor 12\n",
    "        \n",
    "Credits\n",
    "Text: Project Gutenberg https://www.gutenberg.org/ebooks/2680\n",
    "Voice: Google Cloud Text-to-Speech\n",
    "Produced by: The Classic Narrator 2023\n",
    "    \n",
    "Keywords: Meditations, Marcus Aurelius, Emperor of Rome, full audiobook, classic literature, philosophy, wisdom, ethics, human condition, self-discovery, personal growth, leadership, ancient history, reflections, inspiration.\"\n"
   ]
  },
  {
   "cell_type": "code",
   "execution_count": 11,
   "id": "77a554fb",
   "metadata": {},
   "outputs": [
    {
     "name": "stdout",
     "output_type": "stream",
     "text": [
      "Generate audio => output.mp3\n"
     ]
    },
    {
     "data": {
      "text/plain": [
       "1"
      ]
     },
     "execution_count": 11,
     "metadata": {},
     "output_type": "execute_result"
    }
   ],
   "source": [
    "# Voice test\n",
    "\n",
    "from TextToAudiobook import *\n",
    "test_tta = TextToAudiobook(\"test\")\n",
    "\n",
    "\n",
    "\n",
    "text = '''\n",
    "\n",
    "8. Of Fronto, to how much envy and fraud and hypocrisy the state of a\n",
    "tyrannous king is subject unto, and how they who are commonly called\n",
    "εὐπατρίδαι,  i.e.  nobly born, are in some sort incapable, or void\n",
    "of natural affection.\n",
    "\n",
    "'''\n",
    "\n",
    "text = '''\n",
    "MARCUS AURELIUS ANTONINUS was born on April 26, A.D 121. His real name\n",
    "was Marcus Annius Verus, and he was sprung of a noble family which claimed\n",
    "descent from Numa.\n",
    "'''\n",
    "\n",
    "# Test voices\n",
    "\n",
    "\n",
    "voice = texttospeech.VoiceSelectionParams(\n",
    "    language_code=\"en-GB\",\n",
    "    name=\"en-GB-Standard-D\",\n",
    ")\n",
    "\n",
    "\n",
    "audio_config = texttospeech.AudioConfig(\n",
    "    audio_encoding=texttospeech.AudioEncoding.MP3,\n",
    "    speaking_rate=0.9\n",
    ")\n",
    "\n",
    "test_tta.synthesize_ssml(text, \"output.mp3\", voice, audio_config)\n",
    "# test_tta.synthesize_text(text, \"output.mp3\", voice, audio_config)\n",
    "\n"
   ]
  },
  {
   "cell_type": "code",
   "execution_count": 12,
   "id": "0326b8d9",
   "metadata": {},
   "outputs": [
    {
     "name": "stdout",
     "output_type": "stream",
     "text": [
      "The autoreload extension is already loaded. To reload it, use:\n",
      "  %reload_ext autoreload\n"
     ]
    }
   ],
   "source": [
    "%load_ext autoreload\n",
    "%reload_ext autoreload\n",
    "%autoreload 2"
   ]
  },
  {
   "cell_type": "code",
   "execution_count": 13,
   "id": "c3793734",
   "metadata": {},
   "outputs": [],
   "source": [
    "# Text to script\n",
    "\n",
    "from TextToAudiobook import *\n",
    "\n",
    "folder_name = \"MeditationsMarcusAurelius\"\n",
    "file_name = \"2680-1.txt\"\n",
    "\n",
    "test_tta = TextToAudiobook(folder_name, char_limit_per_call=2000)"
   ]
  },
  {
   "cell_type": "code",
   "execution_count": 14,
   "id": "4b63cb09",
   "metadata": {},
   "outputs": [
    {
     "name": "stdout",
     "output_type": "stream",
     "text": [
      "Clean: 5634 lines\n",
      "./MeditationsMarcusAurelius/project_file/clean/2680-1.txt\n",
      "Tag: 5634 lines\n",
      "./MeditationsMarcusAurelius/project_file/tag/2680-1.txt\n",
      "Break: 5634 lines\n",
      "./MeditationsMarcusAurelius/project_file/break/2680-1.txt\n",
      "Split: 183 files\n",
      "./MeditationsMarcusAurelius/project_file/split/2680-1_txt/\n"
     ]
    }
   ],
   "source": [
    "#1 Clean raw file and copy to clean folder\n",
    "print(test_tta.clean_txt_raw(file_name))\n",
    "\n",
    "#2 Tag speech in clean file and copy to tag folder\n",
    "print(test_tta.tag_txt_clean(file_name))\n",
    "\n",
    "#3 Mark break point by chapter and characters limit\n",
    "print(test_tta.break_txt_tag(file_name))\n",
    "\n",
    "#4 Split into files by chapter and characters break\n",
    "print(test_tta.split_txt_break(file_name))"
   ]
  },
  {
   "cell_type": "code",
   "execution_count": 20,
   "id": "750cd4eb",
   "metadata": {},
   "outputs": [
    {
     "name": "stdout",
     "output_type": "stream",
     "text": [
      "Generate audio => ./MeditationsMarcusAurelius/project_file/audio/2680-1_txt/0010_005.mp3\n",
      "Generate audio => ./MeditationsMarcusAurelius/project_file/audio/2680-1_txt/0010_006.mp3\n",
      "Generate audio => ./MeditationsMarcusAurelius/project_file/audio/2680-1_txt/0010_007.mp3\n",
      "Generate audio => ./MeditationsMarcusAurelius/project_file/audio/2680-1_txt/0010_008.mp3\n",
      "Generate audio => ./MeditationsMarcusAurelius/project_file/audio/2680-1_txt/0010_009.mp3\n",
      "Generate audio => ./MeditationsMarcusAurelius/project_file/audio/2680-1_txt/0010_010.mp3\n",
      "Generate audio => ./MeditationsMarcusAurelius/project_file/audio/2680-1_txt/0010_011.mp3\n",
      "Generate audio => ./MeditationsMarcusAurelius/project_file/audio/2680-1_txt/0010_012.mp3\n",
      "Generate audio => ./MeditationsMarcusAurelius/project_file/audio/2680-1_txt/0010_013.mp3\n",
      "Generate audio => ./MeditationsMarcusAurelius/project_file/audio/2680-1_txt/0010_014.mp3\n",
      "Generate audio => ./MeditationsMarcusAurelius/project_file/audio/2680-1_txt/0010_015.mp3\n",
      "Generate audio => ./MeditationsMarcusAurelius/project_file/audio/2680-1_txt/0010_016.mp3\n",
      "Generate audio => ./MeditationsMarcusAurelius/project_file/audio/2680-1_txt/0010_017.mp3\n",
      "Generate audio => ./MeditationsMarcusAurelius/project_file/audio/2680-1_txt/0010_018.mp3\n",
      "Generate audio => ./MeditationsMarcusAurelius/project_file/audio/2680-1_txt/0011_001.mp3\n",
      "Generate audio => ./MeditationsMarcusAurelius/project_file/audio/2680-1_txt/0011_002.mp3\n",
      "Generate audio => ./MeditationsMarcusAurelius/project_file/audio/2680-1_txt/0011_003.mp3\n",
      "Generate audio => ./MeditationsMarcusAurelius/project_file/audio/2680-1_txt/0011_004.mp3\n",
      "Generate audio => ./MeditationsMarcusAurelius/project_file/audio/2680-1_txt/0011_005.mp3\n",
      "Generate audio => ./MeditationsMarcusAurelius/project_file/audio/2680-1_txt/0011_006.mp3\n",
      "Generate audio => ./MeditationsMarcusAurelius/project_file/audio/2680-1_txt/0011_007.mp3\n",
      "Generate audio => ./MeditationsMarcusAurelius/project_file/audio/2680-1_txt/0011_008.mp3\n",
      "Generate audio => ./MeditationsMarcusAurelius/project_file/audio/2680-1_txt/0011_009.mp3\n",
      "Generate audio => ./MeditationsMarcusAurelius/project_file/audio/2680-1_txt/0011_010.mp3\n",
      "Generate audio => ./MeditationsMarcusAurelius/project_file/audio/2680-1_txt/0011_011.mp3\n",
      "Generate audio => ./MeditationsMarcusAurelius/project_file/audio/2680-1_txt/0011_012.mp3\n",
      "Generate audio => ./MeditationsMarcusAurelius/project_file/audio/2680-1_txt/0011_013.mp3\n",
      "Generate audio => ./MeditationsMarcusAurelius/project_file/audio/2680-1_txt/0012_001.mp3\n",
      "Generate audio => ./MeditationsMarcusAurelius/project_file/audio/2680-1_txt/0012_002.mp3\n",
      "Generate audio => ./MeditationsMarcusAurelius/project_file/audio/2680-1_txt/0012_003.mp3\n",
      "Generate audio => ./MeditationsMarcusAurelius/project_file/audio/2680-1_txt/0012_004.mp3\n",
      "Generate audio => ./MeditationsMarcusAurelius/project_file/audio/2680-1_txt/0012_005.mp3\n",
      "Generate audio => ./MeditationsMarcusAurelius/project_file/audio/2680-1_txt/0012_006.mp3\n",
      "Generate audio => ./MeditationsMarcusAurelius/project_file/audio/2680-1_txt/0012_007.mp3\n",
      "Generate audio => ./MeditationsMarcusAurelius/project_file/audio/2680-1_txt/0012_008.mp3\n",
      "Generate audio => ./MeditationsMarcusAurelius/project_file/audio/2680-1_txt/0012_009.mp3\n",
      "Generate audio => ./MeditationsMarcusAurelius/project_file/audio/2680-1_txt/0012_010.mp3\n",
      "Generate audio => ./MeditationsMarcusAurelius/project_file/audio/2680-1_txt/0012_011.mp3\n",
      "Synthesize: 38 files\n",
      "./MeditationsMarcusAurelius/project_file/audio/2680-1_txt/\n"
     ]
    }
   ],
   "source": [
    "# Split into files by chapter and characters break\n",
    "voice = texttospeech.VoiceSelectionParams(\n",
    "    language_code=\"en-GB\",\n",
    "    name=\"en-GB-Standard-D\",\n",
    ")\n",
    "\n",
    "audio_config = texttospeech.AudioConfig(\n",
    "    audio_encoding=texttospeech.AudioEncoding.MP3,\n",
    "    speaking_rate=0.9\n",
    ")\n",
    "print(test_tta.synthesize_txt_split(file_name, file_limit=100, voice=voice, audio_config=audio_config))\n"
   ]
  },
  {
   "cell_type": "code",
   "execution_count": 21,
   "id": "ab7994d6",
   "metadata": {},
   "outputs": [
    {
     "name": "stdout",
     "output_type": "stream",
     "text": [
      "Generate track list: ./MeditationsMarcusAurelius/project_file/audio/2680-1_txt/track_list.txt [total: 183 files]\n"
     ]
    },
    {
     "name": "stderr",
     "output_type": "stream",
     "text": [
      "ffmpeg version 5.1.2 Copyright (c) 2000-2022 the FFmpeg developers\n",
      "  built with Apple clang version 14.0.0 (clang-1400.0.29.102)\n",
      "  configuration: --prefix=/usr/local/Cellar/ffmpeg/5.1.2 --enable-shared --enable-pthreads --enable-version3 --cc=clang --host-cflags= --host-ldflags= --enable-ffplay --enable-gnutls --enable-gpl --enable-libaom --enable-libbluray --enable-libdav1d --enable-libmp3lame --enable-libopus --enable-librav1e --enable-librist --enable-librubberband --enable-libsnappy --enable-libsrt --enable-libtesseract --enable-libtheora --enable-libvidstab --enable-libvmaf --enable-libvorbis --enable-libvpx --enable-libwebp --enable-libx264 --enable-libx265 --enable-libxml2 --enable-libxvid --enable-lzma --enable-libfontconfig --enable-libfreetype --enable-frei0r --enable-libass --enable-libopencore-amrnb --enable-libopencore-amrwb --enable-libopenjpeg --enable-libspeex --enable-libsoxr --enable-libzmq --enable-libzimg --disable-libjack --disable-indev=jack --enable-videotoolbox\n",
      "  libavutil      57. 28.100 / 57. 28.100\n",
      "  libavcodec     59. 37.100 / 59. 37.100\n",
      "  libavformat    59. 27.100 / 59. 27.100\n",
      "  libavdevice    59.  7.100 / 59.  7.100\n",
      "  libavfilter     8. 44.100 /  8. 44.100\n",
      "  libswscale      6.  7.100 /  6.  7.100\n",
      "  libswresample   4.  7.100 /  4.  7.100\n",
      "  libpostproc    56.  6.100 / 56.  6.100\n",
      "[mp3 @ 0x7f8ccc10a5c0] Estimating duration from bitrate, this may be inaccurate\n",
      "Input #0, concat, from './MeditationsMarcusAurelius/project_file/audio/2680-1_txt/track_list.txt':\n",
      "  Duration: N/A, start: 0.000000, bitrate: 32 kb/s\n",
      "  Stream #0:0: Audio: mp3, 24000 Hz, mono, fltp, 32 kb/s\n",
      "Output #0, mp3, to './MeditationsMarcusAurelius/project_file/audio/2680-1_txt.mp3':\n",
      "  Metadata:\n",
      "    TSSE            : Lavf59.27.100\n",
      "  Stream #0:0: Audio: mp3, 24000 Hz, mono, fltp, 32 kb/s\n",
      "Stream mapping:\n",
      "  Stream #0:0 -> #0:0 (copy)\n",
      "Press [q] to stop, [?] for help\n",
      "[mp3 @ 0x7f8ccaf04a00] Estimating duration from bitrate, this may be inaccurate\n",
      "[mp3 @ 0x7f8ccc005e40] Estimating duration from bitrate, this may be inaccurate\n",
      "[mp3 @ 0x7f8ccaf04a00] Estimating duration from bitrate, this may be inaccurate\n",
      "[mp3 @ 0x7f8ccc005300] Estimating duration from bitrate, this may be inaccurate\n",
      "[mp3 @ 0x7f8ccaf04a00] Estimating duration from bitrate, this may be inaccurate\n",
      "[mp3 @ 0x7f8ccaf04e40] Estimating duration from bitrate, this may be inaccurate\n",
      "[mp3 @ 0x7f8ccc005200] Estimating duration from bitrate, this may be inaccurate\n",
      "[mp3 @ 0x7f8ccc111480] Estimating duration from bitrate, this may be inaccurate\n",
      "    Last message repeated 1 times\n",
      "[mp3 @ 0x7f8ccaf04a00] Estimating duration from bitrate, this may be inaccurate\n",
      "[mp3 @ 0x7f8ccc111480] Estimating duration from bitrate, this may be inaccurate\n",
      "[mp3 @ 0x7f8ccaf04a00] Estimating duration from bitrate, this may be inaccurate\n",
      "    Last message repeated 2 times\n",
      "[mp3 @ 0x7f8ccc1114c0] Estimating duration from bitrate, this may be inaccurate\n",
      "[mp3 @ 0x7f8ccc005240] Estimating duration from bitrate, this may be inaccurate\n",
      "[mp3 @ 0x7f8ccc005200] Estimating duration from bitrate, this may be inaccurate\n",
      "[mp3 @ 0x7f8ccc306280] Estimating duration from bitrate, this may be inaccurate\n",
      "[mp3 @ 0x7f8ccc7041c0] Estimating duration from bitrate, this may be inaccurate\n",
      "[mp3 @ 0x7f8ccc111480] Estimating duration from bitrate, this may be inaccurate\n",
      "[mp3 @ 0x7f8ccc3056c0] Estimating duration from bitrate, this may be inaccurate\n",
      "[mp3 @ 0x7f8ccc005200] Estimating duration from bitrate, this may be inaccurate\n",
      "[mp3 @ 0x7f8ccc111480] Estimating duration from bitrate, this may be inaccurate\n",
      "[mp3 @ 0x7f8ccc005200] Estimating duration from bitrate, this may be inaccurate\n",
      "[mp3 @ 0x7f8ccc3056c0] Estimating duration from bitrate, this may be inaccurate\n",
      "[mp3 @ 0x7f8ccaf04a00] Estimating duration from bitrate, this may be inaccurate\n",
      "    Last message repeated 1 times\n",
      "[mp3 @ 0x7f8ccc005200] Estimating duration from bitrate, this may be inaccurate\n",
      "    Last message repeated 1 times\n",
      "[mp3 @ 0x7f8ccc3056c0] Estimating duration from bitrate, this may be inaccurate\n",
      "[mp3 @ 0x7f8ccc005200] Estimating duration from bitrate, this may be inaccurate\n",
      "[mp3 @ 0x7f8ccc3056c0] Estimating duration from bitrate, this may be inaccurate\n",
      "    Last message repeated 1 times\n",
      "[mp3 @ 0x7f8ccc005200] Estimating duration from bitrate, this may be inaccurate\n",
      "[mp3 @ 0x7f8ccc3056c0] Estimating duration from bitrate, this may be inaccurate\n",
      "    Last message repeated 1 times\n",
      "[mp3 @ 0x7f8ccc3056c0] Estimating duration from bitrate, this may be inaccurate\n",
      "    Last message repeated 1 times\n",
      "[mp3 @ 0x7f8ccaf04a00] Estimating duration from bitrate, this may be inaccurate\n",
      "    Last message repeated 1 times\n",
      "[mp3 @ 0x7f8ccc305880] Estimating duration from bitrate, this may be inaccurate\n",
      "[mp3 @ 0x7f8ccc005200] Estimating duration from bitrate, this may be inaccurate\n",
      "[mp3 @ 0x7f8ccaf04a00] Estimating duration from bitrate, this may be inaccurate\n",
      "[mp3 @ 0x7f8ccc3056c0] Estimating duration from bitrate, this may be inaccurate\n",
      "[mp3 @ 0x7f8ccc005200] Estimating duration from bitrate, this may be inaccurate\n",
      "    Last message repeated 2 times\n",
      "[mp3 @ 0x7f8ccc3056c0] Estimating duration from bitrate, this may be inaccurate\n",
      "[mp3 @ 0x7f8ccc005200] Estimating duration from bitrate, this may be inaccurate\n",
      "[mp3 @ 0x7f8ccc111480] Estimating duration from bitrate, this may be inaccurate\n",
      "[mp3 @ 0x7f8ccc005300] Estimating duration from bitrate, this may be inaccurate\n",
      "[mp3 @ 0x7f8ccc3056c0] Estimating duration from bitrate, this may be inaccurate\n",
      "[mp3 @ 0x7f8ccc005200] Estimating duration from bitrate, this may be inaccurate\n",
      "[mp3 @ 0x7f8ccc111480] Estimating duration from bitrate, this may be inaccurate\n",
      "[mp3 @ 0x7f8ccaf04a00] Estimating duration from bitrate, this may be inaccurate\n",
      "[mp3 @ 0x7f8ccc111480] Estimating duration from bitrate, this may be inaccurate\n",
      "[mp3 @ 0x7f8ccaf04bc0] Estimating duration from bitrate, this may be inaccurate\n",
      "[mp3 @ 0x7f8ccc005200] Estimating duration from bitrate, this may be inaccurate\n",
      "[mp3 @ 0x7f8ccaf04a00] Estimating duration from bitrate, this may be inaccurate\n",
      "[mp3 @ 0x7f8ccc005200] Estimating duration from bitrate, this may be inaccurate\n",
      "[mp3 @ 0x7f8ccc111480] Estimating duration from bitrate, this may be inaccurate\n",
      "[mp3 @ 0x7f8ccc005240] Estimating duration from bitrate, this may be inaccurate\n",
      "[mp3 @ 0x7f8ccc005200] Estimating duration from bitrate, this may be inaccurate\n",
      "[mp3 @ 0x7f8ccaf04a00] Estimating duration from bitrate, this may be inaccurate\n",
      "    Last message repeated 1 times\n",
      "[mp3 @ 0x7f8ccc10fb00] Estimating duration from bitrate, this may be inaccurate\n",
      "[mp3 @ 0x7f8ccc005200] Estimating duration from bitrate, this may be inaccurate\n",
      "[mp3 @ 0x7f8ccc3056c0] Estimating duration from bitrate, this may be inaccurate\n",
      "[mp3 @ 0x7f8ccc005200] Estimating duration from bitrate, this may be inaccurate\n",
      "[mp3 @ 0x7f8ccc10fb00] Estimating duration from bitrate, this may be inaccurate\n",
      "[mp3 @ 0x7f8ccc111480] Estimating duration from bitrate, this may be inaccurate\n",
      "[mp3 @ 0x7f8ccc005200] Estimating duration from bitrate, this may be inaccurate\n",
      "[mp3 @ 0x7f8ccc005540] Estimating duration from bitrate, this may be inaccurate\n",
      "[mp3 @ 0x7f8ccc3056c0] Estimating duration from bitrate, this may be inaccurate\n",
      "[mp3 @ 0x7f8ccc111480] Estimating duration from bitrate, this may be inaccurate\n",
      "[mp3 @ 0x7f8ccc3056c0] Estimating duration from bitrate, this may be inaccurate\n",
      "    Last message repeated 1 times\n",
      "[mp3 @ 0x7f8ccc305a00] Estimating duration from bitrate, this may be inaccurate\n",
      "[mp3 @ 0x7f8ccc111480] Estimating duration from bitrate, this may be inaccurate\n",
      "[mp3 @ 0x7f8ccc3056c0] Estimating duration from bitrate, this may be inaccurate\n",
      "    Last message repeated 1 times\n",
      "[mp3 @ 0x7f8ccc005200] Estimating duration from bitrate, this may be inaccurate\n",
      "[mp3 @ 0x7f8ccc1114c0] Estimating duration from bitrate, this may be inaccurate\n",
      "[mp3 @ 0x7f8ccc005200] Estimating duration from bitrate, this may be inaccurate\n",
      "[mp3 @ 0x7f8ccc3056c0] Estimating duration from bitrate, this may be inaccurate\n",
      "[mp3 @ 0x7f8ccaf04a00] Estimating duration from bitrate, this may be inaccurate\n",
      "[mp3 @ 0x7f8ccc111480] Estimating duration from bitrate, this may be inaccurate\n",
      "[mp3 @ 0x7f8ccc005200] Estimating duration from bitrate, this may be inaccurate\n",
      "[mp3 @ 0x7f8ccc111480] Estimating duration from bitrate, this may be inaccurate\n"
     ]
    },
    {
     "name": "stderr",
     "output_type": "stream",
     "text": [
      "    Last message repeated 1 times\n",
      "[mp3 @ 0x7f8ccc3056c0] Estimating duration from bitrate, this may be inaccurate\n",
      "[mp3 @ 0x7f8ccc111480] Estimating duration from bitrate, this may be inaccurate\n",
      "[mp3 @ 0x7f8ccc3056c0] Estimating duration from bitrate, this may be inaccurate\n",
      "[mp3 @ 0x7f8ccc005200] Estimating duration from bitrate, this may be inaccurate\n",
      "[mp3 @ 0x7f8ccaf04b00] Estimating duration from bitrate, this may be inaccurate\n",
      "[mp3 @ 0x7f8ccaf04a00] Estimating duration from bitrate, this may be inaccurate\n",
      "[mp3 @ 0x7f8ccc005200] Estimating duration from bitrate, this may be inaccurate\n",
      "[mp3 @ 0x7f8ccc3056c0] Estimating duration from bitrate, this may be inaccurate\n",
      "[mp3 @ 0x7f8ccaf04a00] Estimating duration from bitrate, this may be inaccurate\n",
      "[mp3 @ 0x7f8ccc005200] Estimating duration from bitrate, this may be inaccurate\n",
      "    Last message repeated 1 times\n",
      "[mp3 @ 0x7f8ccc3056c0] Estimating duration from bitrate, this may be inaccurate\n",
      "    Last message repeated 1 times\n",
      "[mp3 @ 0x7f8ccc10cec0] Estimating duration from bitrate, this may be inaccurate\n",
      "[mp3 @ 0x7f8ccc111480] Estimating duration from bitrate, this may be inaccurate\n",
      "[mp3 @ 0x7f8ccaf04a00] Estimating duration from bitrate, this may be inaccurate\n",
      "    Last message repeated 1 times\n",
      "[mp3 @ 0x7f8ccc3056c0] Estimating duration from bitrate, this may be inaccurate\n",
      "[mp3 @ 0x7f8ccaf04a00] Estimating duration from bitrate, this may be inaccurate\n",
      "[mp3 @ 0x7f8ccc005480] Estimating duration from bitrate, this may be inaccurate\n",
      "[mp3 @ 0x7f8ccaf04a00] Estimating duration from bitrate, this may be inaccurate\n",
      "[mp3 @ 0x7f8ccaf04a00] Estimating duration from bitrate, this may be inaccurate\n",
      "[mp3 @ 0x7f8ccc404080] Estimating duration from bitrate, this may be inaccurate\n",
      "[mp3 @ 0x7f8ccc111480] Estimating duration from bitrate, this may be inaccurate\n",
      "    Last message repeated 1 times\n",
      "[mp3 @ 0x7f8ccc005480] Estimating duration from bitrate, this may be inaccurate\n",
      "[mp3 @ 0x7f8ccc111480] Estimating duration from bitrate, this may be inaccurate\n",
      "[mp3 @ 0x7f8ccaf04a00] Estimating duration from bitrate, this may be inaccurate\n",
      "[mp3 @ 0x7f8ccc111480] Estimating duration from bitrate, this may be inaccurate\n",
      "    Last message repeated 1 times\n",
      "[mp3 @ 0x7f8ccc005200] Estimating duration from bitrate, this may be inaccurate\n",
      "[mp3 @ 0x7f8ccaf04a00] Estimating duration from bitrate, this may be inaccurate\n",
      "[mp3 @ 0x7f8ccc005200] Estimating duration from bitrate, this may be inaccurate\n",
      "[mp3 @ 0x7f8ccc3056c0] Estimating duration from bitrate, this may be inaccurate\n",
      "[mp3 @ 0x7f8ccc005240] Estimating duration from bitrate, this may be inaccurate\n",
      "[mp3 @ 0x7f8ccc305740] Estimating duration from bitrate, this may be inaccurate\n",
      "[mp3 @ 0x7f8ccc704080] Estimating duration from bitrate, this may be inaccurate\n",
      "[mp3 @ 0x7f8ccc10cec0] Estimating duration from bitrate, this may be inaccurate\n",
      "[mp3 @ 0x7f8ccc10bcc0] Estimating duration from bitrate, this may be inaccurate\n",
      "[mp3 @ 0x7f8ccaf04a00] Estimating duration from bitrate, this may be inaccurate\n",
      "[mp3 @ 0x7f8ccc111480] Estimating duration from bitrate, this may be inaccurate\n",
      "[mp3 @ 0x7f8ccc3056c0] Estimating duration from bitrate, this may be inaccurate\n",
      "[mp3 @ 0x7f8ccaf04a00] Estimating duration from bitrate, this may be inaccurate\n",
      "    Last message repeated 1 times\n",
      "[mp3 @ 0x7f8ccc005200] Estimating duration from bitrate, this may be inaccurate\n",
      "[mp3 @ 0x7f8ccaf04a00] Estimating duration from bitrate, this may be inaccurate\n",
      "    Last message repeated 1 times\n",
      "[mp3 @ 0x7f8ccc3056c0] Estimating duration from bitrate, this may be inaccurate\n",
      "[mp3 @ 0x7f8ccaf04a00] Estimating duration from bitrate, this may be inaccurate\n",
      "[mp3 @ 0x7f8ccc111480] Estimating duration from bitrate, this may be inaccurate\n",
      "[mp3 @ 0x7f8cce9040c0] Estimating duration from bitrate, this may be inaccurate\n",
      "[mp3 @ 0x7f8ccc111480] Estimating duration from bitrate, this may be inaccurate\n",
      "[mp3 @ 0x7f8ccc005340] Estimating duration from bitrate, this may be inaccurate\n",
      "[mp3 @ 0x7f8ccaf04a00] Estimating duration from bitrate, this may be inaccurate\n",
      "[mp3 @ 0x7f8ccc3056c0] Estimating duration from bitrate, this may be inaccurate\n",
      "[mp3 @ 0x7f8ccc005200] Estimating duration from bitrate, this may be inaccurate\n",
      "[mp3 @ 0x7f8ccc111480] Estimating duration from bitrate, this may be inaccurate\n",
      "[mp3 @ 0x7f8ccaf04b80] Estimating duration from bitrate, this may be inaccurate\n",
      "[mp3 @ 0x7f8ccc111480] Estimating duration from bitrate, this may be inaccurate\n",
      "[mp3 @ 0x7f8ccc7042c0] Estimating duration from bitrate, this may be inaccurate\n",
      "[mp3 @ 0x7f8ccc005200] Estimating duration from bitrate, this may be inaccurate\n",
      "[mp3 @ 0x7f8ccaf04a00] Estimating duration from bitrate, this may be inaccurate\n",
      "[mp3 @ 0x7f8ccc005200] Estimating duration from bitrate, this may be inaccurate\n",
      "[mp3 @ 0x7f8ccc005540] Estimating duration from bitrate, this may be inaccurate\n",
      "[mp3 @ 0x7f8ccaf04a00] Estimating duration from bitrate, this may be inaccurate\n",
      "[mp3 @ 0x7f8ccc704080] Estimating duration from bitrate, this may be inaccurate\n",
      "[mp3 @ 0x7f8ccc111480] Estimating duration from bitrate, this may be inaccurate\n",
      "[mp3 @ 0x7f8ccc005200] Estimating duration from bitrate, this may be inaccurate\n",
      "[mp3 @ 0x7f8ccaf04a00] Estimating duration from bitrate, this may be inaccurate\n",
      "[mp3 @ 0x7f8ccc3056c0] Estimating duration from bitrate, this may be inaccurate\n",
      "[mp3 @ 0x7f8ccc005340] Estimating duration from bitrate, this may be inaccurate\n",
      "[mp3 @ 0x7f8ccaf04a00] Estimating duration from bitrate, this may be inaccurate\n",
      "    Last message repeated 2 times\n",
      "[mp3 @ 0x7f8ccc3056c0] Estimating duration from bitrate, this may be inaccurate\n",
      "[mp3 @ 0x7f8ccc111480] Estimating duration from bitrate, this may be inaccurate\n",
      "[mp3 @ 0x7f8ccaf04a00] Estimating duration from bitrate, this may be inaccurate\n",
      "[mp3 @ 0x7f8ccaf04a00] Estimating duration from bitrate, this may be inaccurate\n",
      "[mp3 @ 0x7f8ccc005200] Estimating duration from bitrate, this may be inaccurate\n",
      "[mp3 @ 0x7f8ccaf04a00] Estimating duration from bitrate, this may be inaccurate\n",
      "    Last message repeated 1 times\n",
      "[mp3 @ 0x7f8ccc005280] Estimating duration from bitrate, this may be inaccurate\n",
      "[mp3 @ 0x7f8ccc005240] Estimating duration from bitrate, this may be inaccurate\n",
      "[mp3 @ 0x7f8ccaf04b80] Estimating duration from bitrate, this may be inaccurate\n",
      "[mp3 @ 0x7f8ccc10cec0] Estimating duration from bitrate, this may be inaccurate\n",
      "[mp3 @ 0x7f8ccc005200] Estimating duration from bitrate, this may be inaccurate\n",
      "[mp3 @ 0x7f8ccc005540] Estimating duration from bitrate, this may be inaccurate\n",
      "[mp3 @ 0x7f8ccc005200] Estimating duration from bitrate, this may be inaccurate\n",
      "[mp3 @ 0x7f8ccc111480] Estimating duration from bitrate, this may be inaccurate\n",
      "[mp3 @ 0x7f8cce904080] Estimating duration from bitrate, this may be inaccurate\n"
     ]
    },
    {
     "name": "stdout",
     "output_type": "stream",
     "text": [
      "Generate full audio: ./MeditationsMarcusAurelius/project_file/audio/2680-1_txt.mp3\n",
      "./MeditationsMarcusAurelius/project_file/audio/2680-1_txt.mp3\n"
     ]
    },
    {
     "name": "stderr",
     "output_type": "stream",
     "text": [
      "[mp3 @ 0x7f8ccc3056c0] Estimating duration from bitrate, this may be inaccurate\n",
      "[mp3 @ 0x7f8ccc005200] Estimating duration from bitrate, this may be inaccurate\n",
      "size=   96567kB time=06:52:01.03 bitrate=  32.0kbits/s speed=5.06e+03x    \n",
      "video:0kB audio:96567kB subtitle:0kB other streams:0kB global headers:0kB muxing overhead: 0.000240%\n"
     ]
    }
   ],
   "source": [
    "# Merge audio files => full length\n",
    "print(test_tta.merge_audio_files(file_name))"
   ]
  },
  {
   "cell_type": "code",
   "execution_count": 23,
   "id": "b382e4e1",
   "metadata": {},
   "outputs": [
    {
     "name": "stderr",
     "output_type": "stream",
     "text": [
      "ffmpeg version 5.1.2 Copyright (c) 2000-2022 the FFmpeg developers\n",
      "  built with Apple clang version 14.0.0 (clang-1400.0.29.102)\n",
      "  configuration: --prefix=/usr/local/Cellar/ffmpeg/5.1.2 --enable-shared --enable-pthreads --enable-version3 --cc=clang --host-cflags= --host-ldflags= --enable-ffplay --enable-gnutls --enable-gpl --enable-libaom --enable-libbluray --enable-libdav1d --enable-libmp3lame --enable-libopus --enable-librav1e --enable-librist --enable-librubberband --enable-libsnappy --enable-libsrt --enable-libtesseract --enable-libtheora --enable-libvidstab --enable-libvmaf --enable-libvorbis --enable-libvpx --enable-libwebp --enable-libx264 --enable-libx265 --enable-libxml2 --enable-libxvid --enable-lzma --enable-libfontconfig --enable-libfreetype --enable-frei0r --enable-libass --enable-libopencore-amrnb --enable-libopencore-amrwb --enable-libopenjpeg --enable-libspeex --enable-libsoxr --enable-libzmq --enable-libzimg --disable-libjack --disable-indev=jack --enable-videotoolbox\n",
      "  libavutil      57. 28.100 / 57. 28.100\n",
      "  libavcodec     59. 37.100 / 59. 37.100\n",
      "  libavformat    59. 27.100 / 59. 27.100\n",
      "  libavdevice    59.  7.100 / 59.  7.100\n",
      "  libavfilter     8. 44.100 /  8. 44.100\n",
      "  libswscale      6.  7.100 /  6.  7.100\n",
      "  libswresample   4.  7.100 /  4.  7.100\n",
      "  libpostproc    56.  6.100 / 56.  6.100\n",
      "Input #0, png_pipe, from './MeditationsMarcusAurelius/project_file/image/2680-1_txt.png':\n",
      "  Duration: N/A, bitrate: N/A\n",
      "  Stream #0:0: Video: png, rgba(pc), 1280x720 [SAR 2835:2835 DAR 16:9], 25 fps, 25 tbr, 25 tbn\n",
      "Input #1, mp3, from './MeditationsMarcusAurelius/project_file/audio/2680-1_txt.mp3':\n",
      "  Metadata:\n",
      "    encoder         : Lavf59.27.100\n",
      "  Duration: 06:52:01.03, start: 0.022042, bitrate: 32 kb/s\n",
      "  Stream #1:0: Audio: mp3, 24000 Hz, mono, fltp, 32 kb/s\n",
      "Stream mapping:\n",
      "  Stream #0:0 -> #0:0 (png (native) -> h264 (libx264))\n",
      "  Stream #1:0 -> #0:1 (mp3 (mp3float) -> aac (native))\n",
      "Press [q] to stop, [?] for help\n",
      "[libx264 @ 0x7fcdf410a780] using SAR=1/1\n",
      "[libx264 @ 0x7fcdf410a780] using cpu capabilities: MMX2 SSE2Fast SSSE3 SSE4.2 AVX FMA3 BMI2 AVX2\n",
      "[libx264 @ 0x7fcdf410a780] profile High, level 3.1, 4:2:0, 8-bit\n",
      "[libx264 @ 0x7fcdf410a780] 264 - core 164 r3095 baee400 - H.264/MPEG-4 AVC codec - Copyleft 2003-2022 - http://www.videolan.org/x264.html - options: cabac=1 ref=3 deblock=1:-3:-3 analyse=0x3:0x113 me=hex subme=7 psy=1 psy_rd=2.00:0.70 mixed_ref=1 me_range=16 chroma_me=1 trellis=1 8x8dct=1 cqm=0 deadzone=21,11 fast_pskip=1 chroma_qp_offset=-4 threads=12 lookahead_threads=2 sliced_threads=0 nr=0 decimate=1 interlaced=0 bluray_compat=0 constrained_intra=0 bframes=3 b_pyramid=2 b_adapt=1 b_bias=0 direct=1 weightb=1 open_gop=0 weightp=2 keyint=250 keyint_min=25 scenecut=40 intra_refresh=0 rc_lookahead=40 rc=crf mbtree=1 crf=23.0 qcomp=0.60 qpmin=0 qpmax=69 qpstep=4 ip_ratio=1.40 aq=1:1.20\n",
      "[aac @ 0x7fcdf410bc80] Too many bits 8192.000000 > 6144 per frame requested, clamping to max\n",
      "Output #0, mp4, to './MeditationsMarcusAurelius/project_file/video/2680-1_txt.mp4':\n",
      "  Metadata:\n",
      "    encoder         : Lavf59.27.100\n",
      "  Stream #0:0: Video: h264 (avc1 / 0x31637661), yuv420p(tv, progressive), 1280x720 [SAR 1:1 DAR 16:9], q=2-31, 25 fps, 12800 tbn\n",
      "    Metadata:\n",
      "      encoder         : Lavc59.37.100 libx264\n",
      "    Side data:\n",
      "      cpb: bitrate max/min/avg: 0/0/0 buffer size: 0 vbv_delay: N/A\n",
      "  Stream #0:1: Audio: aac (LC) (mp4a / 0x6134706D), 24000 Hz, mono, fltp, 144 kb/s\n",
      "    Metadata:\n",
      "      encoder         : Lavc59.37.100 aac\n",
      "frame=618049 fps= 83 q=28.0 size=  835328kB time=06:51:59.61 bitrate= 276.8kbits/s speed= 3.3x    \r"
     ]
    },
    {
     "name": "stdout",
     "output_type": "stream",
     "text": [
      "Generate full video: ./MeditationsMarcusAurelius/project_file/video/2680-1_txt.mp4\n",
      "./MeditationsMarcusAurelius/project_file/video/2680-1_txt.mp4\n"
     ]
    },
    {
     "name": "stderr",
     "output_type": "stream",
     "text": [
      "frame=618082 fps= 83 q=-1.0 Lsize=  850681kB time=06:52:03.16 bitrate= 281.9kbits/s speed= 3.3x    \n",
      "video:538714kB audio:297037kB subtitle:0kB other streams:0kB global headers:0kB muxing overhead: 1.786427%\n",
      "[libx264 @ 0x7fcdf410a780] frame I:2473  Avg QP:13.52  size:173775\n",
      "[libx264 @ 0x7fcdf410a780] frame P:155757 Avg QP:12.50  size:   503\n",
      "[libx264 @ 0x7fcdf410a780] frame B:459852 Avg QP:17.33  size:    95\n",
      "[libx264 @ 0x7fcdf410a780] consecutive B-frames:  0.8%  0.0%  0.0% 99.2%\n",
      "[libx264 @ 0x7fcdf410a780] mb I  I16..4:  7.6% 50.1% 42.4%\n",
      "[libx264 @ 0x7fcdf410a780] mb P  I16..4:  0.0%  0.0%  0.0%  P16..4:  1.5%  0.2%  0.2%  0.0%  0.0%    skip:98.2%\n",
      "[libx264 @ 0x7fcdf410a780] mb B  I16..4:  0.0%  0.0%  0.0%  B16..8:  1.7%  0.0%  0.0%  direct: 0.0%  skip:98.3%  L0:70.4% L1:29.4% BI: 0.2%\n",
      "[libx264 @ 0x7fcdf410a780] 8x8 transform intra:50.1% inter:91.9%\n",
      "[libx264 @ 0x7fcdf410a780] coded y,uvDC,uvAC intra: 89.1% 92.3% 91.6% inter: 0.2% 0.0% 0.0%\n",
      "[libx264 @ 0x7fcdf410a780] i16 v,h,dc,p: 24%  3%  8% 65%\n",
      "[libx264 @ 0x7fcdf410a780] i8 v,h,dc,ddl,ddr,vr,hd,vl,hu: 29% 12% 18%  7%  6%  8%  5%  9%  6%\n",
      "[libx264 @ 0x7fcdf410a780] i4 v,h,dc,ddl,ddr,vr,hd,vl,hu: 24% 11%  7%  9% 10% 12%  8% 11%  7%\n",
      "[libx264 @ 0x7fcdf410a780] i8c dc,h,v,p: 56% 12% 20% 12%\n",
      "[libx264 @ 0x7fcdf410a780] Weighted P-Frames: Y:0.0% UV:0.0%\n",
      "[libx264 @ 0x7fcdf410a780] ref P L0: 66.2%  0.1% 33.2%  0.5%\n",
      "[libx264 @ 0x7fcdf410a780] ref B L0: 31.1% 68.8%  0.1%\n",
      "[libx264 @ 0x7fcdf410a780] ref B L1: 99.6%  0.4%\n",
      "[libx264 @ 0x7fcdf410a780] kb/s:178.50\n",
      "[aac @ 0x7fcdf410bc80] Qavg: 65520.957\n"
     ]
    }
   ],
   "source": [
    "# Audio + Image => Video\n",
    "print(test_tta.merge_video_file(file_name))"
   ]
  },
  {
   "cell_type": "code",
   "execution_count": 24,
   "id": "004bc195",
   "metadata": {},
   "outputs": [
    {
     "name": "stdout",
     "output_type": "stream",
     "text": [
      "0:00:00 Chapter 1\n",
      "1:00:12 Chaptor 2\n",
      "1:14:20 Chaptor 3\n",
      "1:36:09 Chaptor 4\n",
      "2:12:14 Chaptor 5\n",
      "2:48:05 Chaptor 6\n",
      "3:24:38 Chaptor 7\n",
      "4:03:50 Chaptor 8\n",
      "4:43:08 Chaptor 9\n",
      "5:18:03 Chaptor 10\n",
      "5:58:17 Chaptor 11\n",
      "6:27:35 Chaptor 12\n"
     ]
    }
   ],
   "source": [
    "print(test_tta.gen_youtube_chapter_marker(file_name))"
   ]
  },
  {
   "cell_type": "code",
   "execution_count": null,
   "id": "a692882a",
   "metadata": {},
   "outputs": [],
   "source": []
  }
 ],
 "metadata": {
  "kernelspec": {
   "display_name": "Python tts env",
   "language": "python",
   "name": "tts_env"
  },
  "language_info": {
   "codemirror_mode": {
    "name": "ipython",
    "version": 3
   },
   "file_extension": ".py",
   "mimetype": "text/x-python",
   "name": "python",
   "nbconvert_exporter": "python",
   "pygments_lexer": "ipython3",
   "version": "3.9.12"
  }
 },
 "nbformat": 4,
 "nbformat_minor": 5
}
